<svg xmlns="http://www.w3.org/2000/svg" xmlns:xlink="http://www.w3.org/1999/xlink" width="1200" height="720" viewBox="0 0 1200 720" font-family="Inter, Segoe UI, SF Pro Display, Roboto, Helvetica, Arial, sans-serif">
  <defs>
    <radialGradient id="cbg" cx="0.5" cy="0.2" r="1">
      <stop offset="0" stop-color="#121b32"/>
      <stop offset="0.6" stop-color="#0b0f1a"/>
      <stop offset="1" stop-color="#05070d"/>
    </radialGradient>
    <radialGradient id="cvig" cx="0.5" cy="0.5" r="0.75">
      <stop offset="0.6" stop-color="#000000" stop-opacity="0"/>
      <stop offset="1" stop-color="#000000" stop-opacity="0.45"/>
    </radialGradient>
    <linearGradient id="cedge" x1="0" y1="0" x2="1" y2="0">
      <stop offset="0" stop-color="#38e1ff"/>
      <stop offset="0.5" stop-color="#818cf8"/>
      <stop offset="1" stop-color="#e6b34d"/>
    </linearGradient>
    <pattern id="cdots" width="26" height="26" patternUnits="userSpaceOnUse">
      <circle cx="1.5" cy="1.5" r="1.2" fill="#202b45"/>
    </pattern>
    <filter id="cblur" x="-60%" y="-60%" width="220%" height="220%">
      <feGaussianBlur stdDeviation="8"/>
    </filter>
    <marker id="arr" viewBox="0 0 10 10" refX="8" refY="5" markerWidth="7" markerHeight="7" orient="auto-start-reverse">
      <path d="M0,0 L10,5 L0,10" fill="none" stroke="#8f8ff2" stroke-width="1.6"/>
    </marker>
    <marker id="arrD" viewBox="0 0 10 10" refX="8" refY="5" markerWidth="7" markerHeight="7" orient="auto-start-reverse">
      <path d="M0,0 L10,5 L0,10" fill="none" stroke="#5b6b85" stroke-width="1.6"/>
    </marker>
    <!-- ======== icon set: 24x24, stroke=currentColor, fill=none ======== -->
    <symbol id="i-term" fill="none" stroke="currentColor" stroke-width="2" stroke-linecap="round" stroke-linejoin="round">
      <rect x="2" y="4" width="20" height="15" rx="2.5"/><path d="M6.5,9.5 l3,3 -3,3 M12,15.5 h5.5"/>
    </symbol>
    <symbol id="i-box" fill="none" stroke="currentColor" stroke-width="2" stroke-linecap="round" stroke-linejoin="round">
      <path d="M12,2.5 l8,4.6 v9.2 l-8,4.6 -8,-4.6 v-9.2 z"/><path d="M4.5,7.3 l7.5,4.3 7.5,-4.3 M12,11.6 v8.7"/>
    </symbol>
    <symbol id="i-hex" fill="none" stroke="currentColor" stroke-width="2" stroke-linecap="round" stroke-linejoin="round">
      <path d="M12,2.5 l7.8,4.5 v9 l-7.8,4.5 -7.8,-4.5 v-9 z"/><circle cx="12" cy="12" r="2.2" fill="currentColor" stroke="none"/>
    </symbol>
    <symbol id="i-layers" fill="none" stroke="currentColor" stroke-width="2" stroke-linecap="round" stroke-linejoin="round">
      <path d="M12,3.5 l8.5,4.7 -8.5,4.7 -8.5,-4.7 z"/><path d="M4.5,12.5 l7.5,4.1 7.5,-4.1 M4.5,16.5 l7.5,4.1 7.5,-4.1"/>
    </symbol>
    <symbol id="i-bolt" fill="none" stroke="currentColor" stroke-width="2" stroke-linecap="round" stroke-linejoin="round">
      <path d="M13,2.5 l-6.5,9.5 h5 l-1.5,9.5 7,-10 h-5.5 z"/>
    </symbol>
    <symbol id="i-link" fill="none" stroke="currentColor" stroke-width="2" stroke-linecap="round">
      <circle cx="6" cy="12" r="3.2"/><circle cx="18" cy="12" r="3.2"/><line x1="9.2" y1="12" x2="14.8" y2="12"/>
    </symbol>
    <symbol id="i-eye" fill="none" stroke="currentColor" stroke-width="2" stroke-linecap="round" stroke-linejoin="round">
      <path d="M2.5,12 c2.5,-4.5 6,-7 9.5,-7 s7,2.5 9.5,7 c-2.5,4.5 -6,7 -9.5,7 s-7,-2.5 -9.5,-7 z"/><circle cx="12" cy="12" r="2.4"/>
    </symbol>
    <symbol id="i-sliders" fill="none" stroke="currentColor" stroke-width="2" stroke-linecap="round">
      <line x1="5" y1="4" x2="5" y2="20"/><line x1="12" y1="4" x2="12" y2="20"/><line x1="19" y1="4" x2="19" y2="20"/>
      <circle cx="5" cy="9" r="2.2" fill="#0b0f1a"/><circle cx="12" cy="15" r="2.2" fill="#0b0f1a"/><circle cx="19" cy="8" r="2.2" fill="#0b0f1a"/>
    </symbol>
    <symbol id="i-chip" fill="none" stroke="currentColor" stroke-width="2" stroke-linecap="round" stroke-linejoin="round">
      <rect x="6.5" y="6.5" width="11" height="11" rx="1.5"/><path d="M9,2.5 v4 M15,2.5 v4 M9,17.5 v4 M15,17.5 v4 M2.5,9 h4 M2.5,15 h4 M17.5,9 h4 M17.5,15 h4"/>
    </symbol>
    <symbol id="i-globe" fill="none" stroke="currentColor" stroke-width="2" stroke-linecap="round">
      <circle cx="12" cy="12" r="9"/><path d="M3,12 h18 M12,3 c-4.5,4.5 -4.5,13.5 0,18 M12,3 c4.5,4.5 4.5,13.5 0,18"/>
    </symbol>
    <symbol id="i-branch" fill="none" stroke="currentColor" stroke-width="2" stroke-linecap="round">
      <circle cx="6.5" cy="5.5" r="2.5"/><circle cx="6.5" cy="18.5" r="2.5"/><circle cx="17.5" cy="9.5" r="2.5"/>
      <path d="M6.5,8 v8 M17.5,12 c0,3.5 -4,3 -8,4.5"/>
    </symbol>
    <symbol id="i-search" fill="none" stroke="currentColor" stroke-width="2" stroke-linecap="round">
      <circle cx="10.5" cy="10.5" r="6.5"/><line x1="15.5" y1="15.5" x2="21" y2="21"/>
    </symbol>
    <symbol id="i-check" fill="none" stroke="currentColor" stroke-width="2" stroke-linecap="round" stroke-linejoin="round">
      <circle cx="12" cy="12" r="9"/><path d="M8,12.5 l2.8,2.8 5.2,-6"/>
    </symbol>
    <symbol id="i-doc" fill="none" stroke="currentColor" stroke-width="2" stroke-linecap="round" stroke-linejoin="round">
      <path d="M6,2.5 h8 l4,4 v15 h-12 z"/><path d="M14,2.5 v4 h4 M9,12 h6 M9,15.5 h6"/>
    </symbol>
    <symbol id="i-play" fill="none" stroke="currentColor" stroke-width="2" stroke-linecap="round" stroke-linejoin="round">
      <circle cx="12" cy="12" r="9"/><path d="M10,8.5 l6,3.5 -6,3.5 z" fill="currentColor" stroke="none"/>
    </symbol>
  </defs>

  <rect x="4" y="4" width="1192" height="712" rx="22" fill="url(#cbg)" stroke="#26334d" stroke-width="1.5"/>
  <rect x="4" y="4" width="1192" height="712" rx="22" fill="url(#cdots)" opacity="0.45"/>
  <rect x="4" y="4" width="1192" height="712" rx="22" fill="url(#cvig)"/>

  <text x="600" y="42" text-anchor="middle" fill="#5b6b85" font-size="11" letter-spacing="5">RPLKIT · ARCHITECTURE CHART</text>
  <text x="600" y="68" text-anchor="middle" fill="#f1f5f9" font-size="22" font-weight="800">Data Flow: Entry → Runtime → Tools</text>

  <!-- ============ ROW 1: ENTRY ============ -->
  <g font-size="12">
    <g>
      <rect x="40" y="96" width="340" height="66" rx="12" fill="#0b1428" stroke="#38bdf8" stroke-width="1.4"/>
      <use href="#i-term" xlink:href="#i-term" x="58" y="108" width="24" height="24" color="#38bdf8"/>
      <text x="90" y="122" fill="#f1f5f9" font-weight="700">C++ rplkit</text>
      <text x="90" y="142" fill="#7d8aa0" font-size="11">CLI + menu · delegates TUI · FFI bridge</text>
    </g>
    <g>
      <rect x="420" y="96" width="360" height="66" rx="12" fill="#0b1428" fill-opacity="0.9" stroke="url(#cedge)" stroke-width="1.6"/>
      <use href="#i-bolt" xlink:href="#i-bolt" x="438" y="108" width="24" height="24" color="#e6b34d"/>
      <text x="470" y="122" fill="#f1f5f9" font-weight="700">Rust rplkit <tspan fill="#8f8ff2" font-size="10">★ primary</tspan></text>
      <text x="470" y="142" fill="#7d8aa0" font-size="11">CLI · TUI (tty) · module cmds · history</text>
    </g>
    <g>
      <rect x="820" y="96" width="340" height="66" rx="12" fill="#0b1428" stroke="#e6b34d" stroke-width="1.4"/>
      <use href="#i-doc" xlink:href="#i-doc" x="838" y="108" width="24" height="24" color="#e6b34d"/>
      <text x="870" y="122" fill="#f1f5f9" font-weight="700">python main.py</text>
      <text x="870" y="142" fill="#7d8aa0" font-size="11">dev path · no build · imports impl.py</text>
    </g>
  </g>

  <!-- entry -> runtime/data arrows -->
  <line x1="210" y1="162" x2="480" y2="196" stroke="#8f8ff2" stroke-width="1.8" marker-end="url(#arr)" stroke-dasharray="7 6">
    <animate attributeName="stroke-dashoffset" from="13" to="0" dur="0.9s" repeatCount="indefinite"/>
  </line>
  <text x="300" y="192" fill="#8f8ff2" font-size="10.5" font-style="italic">FFI · static link</text>
  <line x1="600" y1="162" x2="600" y2="196" stroke="#8f8ff2" stroke-width="1.8" marker-end="url(#arr)" stroke-dasharray="7 6">
    <animate attributeName="stroke-dashoffset" from="13" to="0" dur="0.9s" begin="0.2s" repeatCount="indefinite"/>
  </line>
  <text x="612" y="188" fill="#8f8ff2" font-size="10.5" font-style="italic">in-process</text>
  <line x1="840" y1="162" x2="840" y2="536" stroke="#5b6b85" stroke-width="1.5" stroke-dasharray="5 6" marker-end="url(#arrD)">
    <animate attributeName="stroke-dashoffset" from="11" to="0" dur="1.1s" repeatCount="indefinite"/>
  </line>
  <text transform="rotate(-90 832 350)" x="832" y="350" text-anchor="middle" fill="#5b6b85" font-size="10.5" font-style="italic">imports impl.py</text>

  <!-- ============ ROW 2 ============ -->
  <!-- rplkit-core -->
  <g>
    <rect x="40" y="206" width="300" height="296" rx="14" fill="#0b1226" fill-opacity="0.94" stroke="#38bdf8" stroke-width="1.4"/>
    <use href="#i-hex" xlink:href="#i-hex" x="58" y="218" width="22" height="22" color="#38bdf8"/>
    <text x="88" y="235" fill="#f1f5f9" font-size="13" font-weight="700">rplkit-core</text>
    <text x="60" y="256" fill="#5b6b85" font-size="10.5">safe primitives · motives</text>
    <g font-family="JetBrains Mono, SFMono-Regular, Menlo, Consolas, monospace" font-size="11" fill="#7dd3fc">
      <text x="60" y="284">calc · codec</text>
      <text x="60" y="306">uuid · timestamp</text>
      <text x="60" y="328">sys · sysinfo</text>
      <text x="60" y="350">manifests · json</text>
      <text x="60" y="372">file-info · convert</text>
    </g>
    <use href="#i-check" xlink:href="#i-check" x="58" y="412" width="18" height="18" color="#34d399"/>
    <text x="82" y="426" fill="#6E7681" font-size="10">9 tests · zero deps*</text>
    <text x="60" y="448" fill="#475569" font-size="9.5">* +sysinfo for sys</text>
  </g>
  <!-- rplkit-runtime -->
  <g>
    <rect x="370" y="206" width="460" height="296" rx="14" fill="#0b1226" fill-opacity="0.94" stroke="url(#cedge)" stroke-width="1.6"/>
    <use href="#i-bolt" xlink:href="#i-bolt" x="388" y="218" width="22" height="22" color="#e6b34d"/>
    <text x="418" y="235" fill="#f1f5f9" font-size="13" font-weight="700">rplkit-runtime <tspan fill="#8f8ff2" font-size="10">★ runner</tspan></text>
    <text x="390" y="256" fill="#5b6b85" font-size="10.5">registry · chain · executors · FFI · history</text>
    <g font-size="10.5" text-anchor="middle" font-weight="600">
      <rect x="386" y="266" width="100" height="52" rx="9" fill="#0c1a3a" stroke="#38bdf8"/>
      <text x="436" y="287" fill="#bae6fd">registry</text>
      <text x="436" y="303" fill="#475569" font-size="9" font-weight="400">tool.json</text>
      <rect x="496" y="266" width="100" height="52" rx="9" fill="#0c1a3a" stroke="#38bdf8"/>
      <text x="546" y="287" fill="#bae6fd">chain</text>
      <text x="546" y="303" fill="#475569" font-size="9" font-weight="400">fallback</text>
      <rect x="606" y="266" width="100" height="52" rx="9" fill="#221a09" stroke="#e6b34d"/>
      <text x="656" y="287" fill="#fde68a">modules</text>
      <text x="656" y="303" fill="#475569" font-size="9" font-weight="400">overlay</text>
      <rect x="716" y="266" width="98" height="52" rx="9" fill="#0a1f1a" stroke="#34d399"/>
      <text x="765" y="287" fill="#a7f3d0">history</text>
      <text x="765" y="303" fill="#475569" font-size="9" font-weight="400">recent</text>
    </g>
    <g font-size="10.5" text-anchor="middle" font-weight="600">
      <rect x="386" y="328" width="214" height="52" rx="9" fill="#0a1410" stroke="#34d399"/>
      <text x="493" y="349" fill="#a7f3d0">exec_native · 14 ops</text>
      <text x="493" y="365" fill="#475569" font-size="9" font-weight="400">calc codec sys…</text>
      <rect x="610" y="328" width="204" height="52" rx="9" fill="#0a1410" stroke="#34d399"/>
      <text x="712" y="349" fill="#a7f3d0">exec_py · PyO3</text>
      <text x="712" y="365" fill="#475569" font-size="9" font-weight="400">embed → py-sys</text>
      <rect x="386" y="390" width="214" height="52" rx="9" fill="#0a1410" stroke="#34d399"/>
      <text x="493" y="411" fill="#a7f3d0">exec_js · swc+QJS</text>
      <text x="493" y="427" fill="#475569" font-size="9" font-weight="400">strip → node</text>
      <rect x="610" y="390" width="204" height="52" rx="9" fill="#0f1626" stroke="#5b6b85"/>
      <text x="712" y="411" fill="#C9D1D9">ffi · 46 tests</text>
      <text x="712" y="427" fill="#475569" font-size="9" font-weight="400">C strings + JSON</text>
    </g>
    <text x="390" y="470" fill="#475569" font-size="10">staticlib → C++ · rlib → tui</text>
  </g>
  <!-- rplkit-tui -->
  <g>
    <rect x="860" y="206" width="300" height="296" rx="14" fill="#0d0f1c" fill-opacity="0.94" stroke="#5B5BD6" stroke-width="1.6"/>
    <use href="#i-term" xlink:href="#i-term" x="878" y="218" width="22" height="22" color="#8f8ff2"/>
    <text x="908" y="235" fill="#f1f5f9" font-size="13" font-weight="700">rplkit-tui</text>
    <text x="880" y="256" fill="#5b6b85" font-size="10.5">ratatui · mono + iris</text>
    <g font-size="11" fill="#b9b9f5">
      <text x="880" y="284">theme (tokens)</text>
      <text x="880" y="306">app (state machine)</text>
      <text x="880" y="328">views ×7 + palette</text>
      <text x="880" y="350">history · OSC52</text>
      <text x="880" y="372">TestBackend goldens</text>
    </g>
    <use href="#i-check" xlink:href="#i-check" x="878" y="412" width="18" height="18" color="#34d399"/>
    <text x="902" y="426" fill="#6E7681" font-size="10">15 tests · tty-gated</text>
    <text x="880" y="450" fill="#475569" font-size="9.5">pipe → help, never hangs</text>
  </g>

  <!-- runtime <-> core/tui links -->
  <line x1="368" y1="350" x2="342" y2="350" stroke="#8f8ff2" stroke-width="1.8" marker-end="url(#arr)" stroke-dasharray="7 6">
    <animate attributeName="stroke-dashoffset" from="13" to="0" dur="0.9s" begin="0.3s" repeatCount="indefinite"/>
  </line>
  <text x="355" y="338" text-anchor="middle" fill="#8f8ff2" font-size="10.5" font-style="italic">uses</text>
  <line x1="832" y1="350" x2="858" y2="350" stroke="#8f8ff2" stroke-width="1.8" marker-end="url(#arr)" stroke-dasharray="7 6">
    <animate attributeName="stroke-dashoffset" from="13" to="0" dur="0.9s" begin="0.45s" repeatCount="indefinite"/>
  </line>
  <text x="845" y="363" text-anchor="middle" fill="#8f8ff2" font-size="10.5" font-style="italic">calls</text>

  <!-- ============ ROW 3: DATA ============ -->
  <g font-size="11">
    <g>
      <rect x="40" y="540" width="250" height="96" rx="12" fill="#0b1428" stroke="#38bdf8" stroke-width="1.3"/>
      <use href="#i-box" xlink:href="#i-box" x="56" y="552" width="20" height="20" color="#38bdf8"/>
      <text x="84" y="567" fill="#f1f5f9" font-weight="700" font-size="12">tools/calculator/</text>
      <text x="58" y="590" fill="#7d8aa0">tool.json · impl.py</text>
      <text x="58" y="610" fill="#7dd3fc" font-family="JetBrains Mono, Menlo, Consolas, monospace">exec: native · py</text>
    </g>
    <g>
      <rect x="310" y="540" width="250" height="96" rx="12" fill="#0a1a14" stroke="#34d399" stroke-width="1.3"/>
      <use href="#i-chip" xlink:href="#i-chip" x="326" y="552" width="20" height="20" color="#34d399"/>
      <text x="354" y="567" fill="#f1f5f9" font-weight="700" font-size="12">tools/system-info/</text>
      <text x="328" y="590" fill="#7d8aa0">tool.json · op: sysinfo</text>
      <text x="328" y="610" fill="#6ee7b7" font-family="JetBrains Mono, Menlo, Consolas, monospace">exec: native</text>
    </g>
    <g>
      <rect x="580" y="540" width="250" height="96" rx="12" fill="#221a09" stroke="#e6b34d" stroke-width="1.3"/>
      <use href="#i-doc" xlink:href="#i-doc" x="596" y="552" width="20" height="20" color="#e6b34d"/>
      <text x="624" y="567" fill="#f1f5f9" font-weight="700" font-size="12">tools/hello/</text>
      <text x="598" y="590" fill="#7d8aa0">tool.json · impl.ts</text>
      <text x="598" y="610" fill="#fcd34d" font-family="JetBrains Mono, Menlo, Consolas, monospace">exec: js → node</text>
    </g>
    <g>
      <rect x="850" y="540" width="310" height="96" rx="12" fill="#0f1626" stroke="#5b6b85" stroke-width="1.3"/>
      <use href="#i-sliders" xlink:href="#i-sliders" x="866" y="552" width="20" height="20" color="#8f8ff2"/>
      <text x="894" y="567" fill="#f1f5f9" font-weight="700" font-size="12">config/</text>
      <text x="868" y="590" fill="#7d8aa0">modules.json · history.json</text>
      <text x="868" y="610" fill="#8f8ff2" font-family="JetBrains Mono, Menlo, Consolas, monospace">overlay + recent</text>
    </g>
  </g>

  <!-- runtime -> data arrows -->
  <g stroke="#8f8ff2" stroke-width="1.8">
    <line x1="300" y1="502" x2="200" y2="536" marker-end="url(#arr)" stroke-dasharray="7 6">
      <animate attributeName="stroke-dashoffset" from="13" to="0" dur="0.9s" begin="0.5s" repeatCount="indefinite"/>
    </line>
    <line x1="600" y1="502" x2="470" y2="536" marker-end="url(#arr)" stroke-dasharray="7 6">
      <animate attributeName="stroke-dashoffset" from="13" to="0" dur="0.9s" begin="0.6s" repeatCount="indefinite"/>
    </line>
    <line x1="760" y1="502" x2="700" y2="536" marker-end="url(#arr)" stroke-dasharray="7 6">
      <animate attributeName="stroke-dashoffset" from="13" to="0" dur="0.9s" begin="0.7s" repeatCount="indefinite"/>
    </line>
  </g>
  <text x="600" y="524" text-anchor="middle" fill="#8f8ff2" font-size="10.5" font-style="italic">reads manifest · runs impl</text>
  <line x1="1005" y1="538" x2="900" y2="504" stroke="#5b6b85" stroke-width="1.5" stroke-dasharray="5 6" marker-end="url(#arrD)">
    <animate attributeName="stroke-dashoffset" from="11" to="0" dur="1.1s" begin="0.4s" repeatCount="indefinite"/>
  </line>

  <!-- footer -->
  <text x="600" y="676" text-anchor="middle" fill="#475569" font-size="11" letter-spacing="1">solid = calls · dashed = reads · ★ = primary path</text>
  <text x="600" y="698" text-anchor="middle" fill="#475569" font-size="10.5">static link (C++) · in-process (Rust bin) · import (Python dev path)</text>
</svg>
